Coordinates
version=1
nRows=15
nColumns=34
inDegrees=no

Units are S.I. units (second, meters, Newtons, ...)
If the header above contains a line with 'inDegrees', this indicates whether rotational values are in degrees (yes) or radians (no).

endheader
time	pelvis_tilt	pelvis_list	pelvis_rotation	pelvis_tx	pelvis_ty	pelvis_tz	hip_flexion_r	hip_adduction_r	hip_rotation_r	knee_angle_r	ankle_angle_r	subtalar_angle_r	mtp_angle_r	hip_flexion_l	hip_adduction_l	hip_rotation_l	knee_angle_l	ankle_angle_l	subtalar_angle_l	mtp_angle_l	lumbar_extension	lumbar_bending	lumbar_rotation	arm_flex_r	arm_add_r	arm_rot_r	elbow_flex_r	pro_sup_r	arm_flex_l	arm_add_l	arm_rot_l	elbow_flex_l	pro_sup_l
0	-0.169882	-0.00975705	-0.00416639	-0.0647192	0.875975	-0.255284	0.606755	0.0295999	-0.196767	0.162443	0.223457	0.104744	-0.0982536	-0.174215	0.02051	-0.283723	0.284632	0.453628	0.350664	-0.0977596	0.0302762	0.220838	-0.129068	-0.277673	-0.21836	-0.34905	0.508182	1.65415	0.0252052	-0.160558	0.143927	0.719672	1.80763
0.01	-0.170146	-0.0273465	-0.0144035	-0.0530427	0.87991	-0.255984	0.605173	0.0448305	-0.210503	0.181744	0.198297	0.0959207	-0.0982701	-0.180001	0.00300416	-0.288126	0.30163	0.431699	0.335572	-0.0977571	0.0203792	0.255293	-0.119101	-0.270576	-0.228733	-0.359529	0.505101	1.65132	0.0223971	-0.148288	0.154859	0.710676	1.81356
0.02	-0.171835	-0.0439601	-0.0242844	-0.0414264	0.883475	-0.256537	0.603401	0.0597311	-0.221454	0.198201	0.17555	0.0880505	-0.0982865	-0.182497	-0.0141334	-0.291409	0.321187	0.408124	0.319651	-0.0977547	0.0124884	0.287966	-0.109986	-0.263266	-0.238445	-0.368831	0.503002	1.64934	0.018433	-0.136773	0.164305	0.703205	1.82031
0.03	-0.17492	-0.0595959	-0.0337942	-0.0298841	0.886691	-0.25695	0.601419	0.0742979	-0.229629	0.211794	0.155229	0.0811248	-0.0983029	-0.181706	-0.030904	-0.293544	0.343308	0.382907	0.302896	-0.0977522	0.00659324	0.318853	-0.10174	-0.255746	-0.247484	-0.376984	0.501907	1.64818	0.0133293	-0.126029	0.1723	0.697269	1.82781
0.04	-0.179341	-0.0742453	-0.0428862	-0.0184306	0.889583	-0.257234	0.599171	0.0885158	-0.235066	0.222474	0.137363	0.0751019	-0.0983193	-0.177634	-0.0473068	-0.294451	0.368002	0.356065	0.285293	-0.0977497	0.00266772	0.347942	-0.094414	-0.248037	-0.255813	-0.384073	0.501891	1.6478	0.00713389	-0.116107	0.178959	0.6929	1.83578
0.05	-0.184998	-0.0878918	-0.0514758	-0.00708206	0.892176	-0.257402	0.596572	0.102355	-0.237831	0.230173	0.121954	0.0698483	-0.0983358	-0.170305	-0.0633347	-0.293989	0.395259	0.327629	0.266837	-0.0977472	0.000667676	0.375216	-0.0880959	-0.240187	-0.263373	-0.390256	0.503085	1.64813	-6.48681e-05	-0.107096	0.184508	0.690148	1.84375
0.06	-0.191751	-0.100523	-0.0594468	0.00414599	0.8945	-0.257465	0.593491	0.115789	-0.237962	0.234786	0.108894	0.0650017	-0.0983522	-0.15978	-0.0789846	-0.291992	0.425027	0.297648	0.247582	-0.0977446	0.000514506	0.400668	-0.0828941	-0.232283	-0.270087	-0.395766	0.505673	1.64909	-0.00813539	-0.099124	0.189251	0.689049	1.85147
0.07	-0.199424	-0.112138	-0.0666659	0.0152378	0.896583	-0.257438	0.589775	0.128791	-0.23547	0.23622	0.0979202	0.0599597	-0.0983686	-0.14618	-0.0942515	-0.288305	0.457197	0.26619	0.227677	-0.0977421	0.00208228	0.424297	-0.0789135	-0.224438	-0.275867	-0.400866	0.509864	1.65067	-0.0169075	-0.0923428	0.193544	0.689623	1.8589
0.08	-0.207802	-0.122743	-0.073006	0.0261779	0.898454	-0.257336	0.585279	0.141308	-0.230406	0.234464	0.0886467	0.0540264	-0.0983851	-0.129688	-0.109111	-0.282813	0.491578	0.233324	0.207374	-0.0977396	0.00518504	0.4461	-0.0762212	-0.21678	-0.280637	-0.405807	0.515863	1.65281	-0.0261817	-0.0869137	0.19777	0.6919	1.86607
0.09	-0.21664	-0.132356	-0.0783703	0.0369496	0.90014	-0.257172	0.579881	0.153257	-0.222894	0.229643	0.0806083	0.0465398	-0.0984015	-0.110566	-0.123517	-0.275474	0.527895	0.199117	0.187029	-0.0977371	0.00956531	0.46607	-0.0748121	-0.209438	-0.284339	-0.410775	0.523841	1.65541	-0.0357425	-0.0829846	0.202289	0.695922	1.87301
0.1	-0.225659	-0.141004	-0.0827125	0.0475381	0.901667	-0.256956	0.573496	0.164548	-0.213135	0.222022	0.0733217	0.0369827	-0.0984179	-0.0891478	-0.137413	-0.266347	0.56579	0.163628	0.167079	-0.0977346	0.0148902	0.484203	-0.0745862	-0.202521	-0.286949	-0.415864	0.533905	1.65833	-0.0453744	-0.080668	0.207374	0.701749	1.8797
0.11	-0.234568	-0.148733	-0.0860456	0.0579307	0.903063	-0.256697	0.566075	0.175094	-0.201406	0.212011	0.0663663	0.0250776	-0.0984344	-0.0658229	-0.150743	-0.255588	0.604849	0.126929	0.147998	-0.0977321	0.0207654	0.500507	-0.0753456	-0.19611	-0.288481	-0.421057	0.546082	1.66141	-0.0548772	-0.0800213	0.213163	0.70944	1.8861
0.12	-0.243084	-0.155603	-0.0884394	0.0681162	0.904349	-0.256398	0.557623	0.184832	-0.188083	0.200144	0.0594712	0.010865	-0.0984508	-0.0410026	-0.163458	-0.243427	0.644629	0.0891219	0.13022	-0.0977296	0.0267632	0.515013	-0.0768107	-0.190251	-0.288991	-0.426238	0.560316	1.66447	-0.0640785	-0.0810326	0.21963	0.71904	1.89212
0.13	-0.250953	-0.161693	-0.0900086	0.078086	0.905544	-0.256062	0.548205	0.193725	-0.173661	0.187063	0.0525919	-0.00524122	-0.0984673	-0.0150814	-0.175525	-0.230123	0.684697	0.0503765	0.114067	-0.0977271	0.0324589	0.527779	-0.0786522	-0.184954	-0.288578	-0.431211	0.576473	1.66733	-0.0728419	-0.0836139	0.22658	0.730551	1.89767
0.14	-0.257971	-0.167087	-0.090893	0.0878337	0.90667	-0.25569	0.537952	0.201754	-0.158777	0.173488	0.0459525	-0.0224442	-0.0984837	0.0115971	-0.186917	-0.215922	0.724666	0.0109746	0.0996867	-0.0977245	0.0374662	0.538895	-0.0805313	-0.180193	-0.287373	-0.435722	0.594359	1.66988	-0.0810699	-0.0876024	0.23367	0.743922	1.90261
